<?xml version="1.0" standalone="no"?>
<!DOCTYPE svg PUBLIC "-//W3C//DTD SVG 20010904//EN"
 "http://www.w3.org/TR/2001/REC-SVG-20010904/DTD/svg10.dtd">
<svg version="1.0" xmlns="http://www.w3.org/2000/svg"
 width="32.000000pt" height="28.000000pt" viewBox="0 0 32.000000 28.000000"
 preserveAspectRatio="xMidYMid meet">

<g transform="translate(0.000000,28.000000) scale(0.100000,-0.100000)"
fill="#000000" stroke="none">
<path d="M130 262 c-33 -15 -110 -97 -120 -128 -25 -74 38 -127 150 -127 159
0 205 100 94 202 -66 60 -88 69 -124 53z m52 -14 c12 -7 44 -34 71 -60 43 -42
48 -50 45 -84 -5 -57 -49 -84 -138 -84 -89 0 -133 27 -138 84 -3 34 2 42 45
84 41 39 78 69 91 71 1 1 12 -5 24 -11z"/>
<path d="M105 189 c-11 -17 1 -21 15 -4 8 9 8 15 2 15 -6 0 -14 -5 -17 -11z"/>
<path d="M150 190 c0 -5 5 -10 10 -10 6 0 10 5 10 10 0 6 -4 10 -10 10 -5 0
-10 -4 -10 -10z"/>
<path d="M200 185 c7 -9 15 -13 17 -11 7 7 -7 26 -19 26 -6 0 -6 -6 2 -15z"/>
</g>
</svg>
